<?xml version="1.0" encoding="UTF-8" standalone="no"?>
<svg
   version="1.1"
   style="display:block"
   viewBox="237.333 48 1650.667 1650.667"
   width="1650.667"
   height="1650.667"
   preserveAspectRatio="none"
   id="svg5"
   sodipodi:docname="icon.svg"
   inkscape:version="1.4 (86a8ad7, 2024-10-11)"
   xmlns:inkscape="http://www.inkscape.org/namespaces/inkscape"
   xmlns:sodipodi="http://sodipodi.sourceforge.net/DTD/sodipodi-0.dtd"
   xmlns="http://www.w3.org/2000/svg"
   xmlns:svg="http://www.w3.org/2000/svg">
  <defs
     id="defs5" />
  <sodipodi:namedview
     id="namedview5"
     pagecolor="#ffffff"
     bordercolor="#000000"
     borderopacity="0.25"
     inkscape:showpageshadow="2"
     inkscape:pageopacity="0.0"
     inkscape:pagecheckerboard="0"
     inkscape:deskcolor="#d1d1d1"
     inkscape:zoom="0.26880619"
     inkscape:cx="-509.66088"
     inkscape:cy="31.621296"
     inkscape:window-width="3840"
     inkscape:window-height="2054"
     inkscape:window-x="3829"
     inkscape:window-y="-11"
     inkscape:window-maximized="1"
     inkscape:current-layer="svg5" />
  <g
     id="g5"
     transform="translate(-0.22805705,297.71639)">
    <path
       fill="#4385bc"
       d="m 661.994,81.2937 c 3.61,-0.3936 8.295,0.196 10.31,3.76 16.435,29.0613 28.286,65.4383 44.847,93.8953 43.798,-6.462 73.635,-6.185 117.717,0.111 4.608,-15.398 39.747,-78.515 47.717,-94.2872 8.908,-17.6304 125.185,38.2082 138.415,49.1122 -0.62,16.267 -4.52,40.144 -6.52,56.861 -1.95,16.332 -3.77,38.182 -6.68,53.801 32.07,15.326 69.67,48.335 94.69,73.078 6.33,-2.885 20.66,-12.205 27.36,-16.103 l 61.94,-35.648 c 30.68,19.917 75.63,87.151 89.41,122.071 -3.8,7.096 -9.57,14.058 -14.21,20.671 -16.88,23.976 -37.44,46.144 -55.67,68.732 -6.34,7.849 -4.09,53.728 -4.08,65.524 -0.21,37.7 0.04,75.401 0.74,113.095 -52.64,1.079 -81.52,-5.468 -123.17,35.594 -20.36,19.779 -32.68,46.406 -34.55,74.735 -0.47,6.362 1.11,13.935 0.76,20.237 -1.26,22.976 -1.05,46.198 -1.18,69.241 -48.17,4.541 -96.368,8.792 -144.588,12.752 l -15.999,1.477 c -1.409,-17.4 -2.424,-53.091 -6.248,-67.822 -6.577,-7.407 -11.132,-11.147 -21.303,-11.383 -12.909,-0.299 -26.011,-0.181 -38.913,-0.169 l -69.513,0.026 -45.968,0.033 c -42.071,0.061 -44.669,1.736 -46.705,46.335 -0.489,10.714 -1.113,21.814 -1.267,32.666 -51.075,-2.77 -105.132,-10.1 -156.864,-13.485 -0.037,-18.739 0.403,-37.883 0.185,-56.497 -0.319,-27.289 -16.769,-30.358 -39.647,-31.915 -6.82,-0.464 -16.164,-1.951 -23.161,-2.806 -37.374,-4.677 -74.785,-9.048 -112.23,-13.112 l 0.037,-276.424 c -11.518,-15.411 -22.386,-32.451 -33.334,-48.16 -5.21,-7.477 -26.875,-35.124 -24.192,-42.337 13.572,-36.495 55.684,-96.778 86.46,-118.782 8.246,2.962 16.967,8.976 24.698,13.08 20.716,10.996 44.12,27.806 64.972,37.721 29.171,-27.287 61.782,-54.682 97.64,-72.709 -2.616,-7.595 -6.197,-38.534 -7.172,-48.139 -1.938,-19.094 -6.265,-43.759 -7.087,-62.503 4.896,-3.978 16.097,-9.71 21.832,-12.907 35.976,-20.061 70.65,-30.8836 110.521,-39.4203 z M 1018.4,699.936 c 57.41,-5.543 99.41,-56.651 93.72,-114.046 -5.69,-57.395 -56.91,-99.261 -114.288,-93.423 -57.173,5.816 -98.855,56.805 -93.186,113.993 5.67,57.187 56.553,99 113.754,93.476 z M 537.553,699.482 C 594.954,701.59 643.167,656.71 645.169,599.306 647.17,541.902 602.2,493.772 544.793,491.877 c -57.257,-1.89 -105.233,42.936 -107.23,100.19 -1.996,57.253 42.741,105.312 99.99,107.415 z m 245.607,11.631 c 13.284,-4.374 25.84,-15.633 26.118,-30.208 0.532,-27.909 0.401,-56.728 0.53,-84.618 0.109,-23.476 -18.961,-39.002 -42.387,-35.948 -9.263,3.75 -20.112,9.182 -24.09,19.087 -4.344,10.818 -3.97,103.118 0.886,114.266 3.315,7.61 10.322,13.403 18.028,16.177 7.171,2.582 13.491,2.517 20.915,1.244 z"
       id="path1" />
    <path
       fill="#314056"
       d="m 991.728,529.909 c 39.812,-4.284 75.562,24.489 79.892,64.293 4.34,39.805 -24.4,75.594 -64.2,79.972 -39.86,4.384 -75.722,-24.404 -80.06,-64.275 -4.338,-39.87 24.493,-75.698 64.368,-79.99 z"
       id="path2" />
    <path
       fill="#314056"
       d="m 543.273,529.657 c 39.618,-4.097 75.074,24.656 79.248,64.266 4.174,39.61 -24.509,75.122 -64.111,79.374 -39.712,4.263 -75.343,-24.517 -79.529,-64.237 -4.186,-39.72 24.664,-75.295 64.392,-79.403 z"
       id="path3" />
    <path
       fill="#314056"
       d="m 1446.48,325.369 c 1.85,-0.085 3.7,-0.129 5.55,-0.131 68.98,-0.527 115.49,64.314 87.68,129.499 -3.79,8.895 -14.18,24.325 -13.86,33.59 1.27,21.431 23.77,19.492 39.14,19.396 19.86,-0.635 41.88,0.643 61.49,-0.181 57.18,-2.4 52.8,30.503 53.08,73.758 l 0.01,82.753 c 15.51,24.354 32.57,3.155 53.16,-3.707 22.48,-7.667 47.09,-6.013 68.34,4.594 106.4,53.476 44.41,219.409 -70.74,182.877 -17.34,-5.499 -38.08,-26.873 -50.23,-1.494 -0.49,38.298 -0.62,76.601 -0.38,114.902 0,19.553 1.71,46.615 -1.9,64.865 -5.71,28.89 -37.01,29.09 -59.7,28.05 -27.75,-1.27 -55.55,1.83 -83.09,-1.05 -14.6,-1.52 0.54,-25.45 1.82,-32.37 8.25,-23.095 7.45,-50.766 -3.34,-73.228 -10.71,-22.558 -30.09,-39.827 -53.73,-47.886 -25.57,-8.937 -49.26,-6.359 -73.37,5.355 -10.05,5.044 -19.09,11.89 -26.67,20.198 -23.92,26.208 -28.73,60.614 -19.58,94.111 2.45,10.32 18.61,33.72 -3.07,34.34 -29.03,0.84 -59.08,-0.14 -88.15,-0.23 l -169.71,0.26 c 64.62,-26.44 115.37,-69.681 136.12,-138.345 4.98,-16.491 13.4,-41.86 0.09,-56.526 -9.2,-10.145 -27.75,-7.472 -39.86,-7.507 -28.1,0.914 -53.98,1.372 -77.21,-16.967 -18.28,-14.137 -31.69,-39.41 -30.85,-62.846 2.95,-41.682 29.86,-73.841 72.46,-78.514 20.31,-2.228 83.48,9.397 85.92,-18.299 1.14,-12.851 0.56,-33.981 0.65,-47.047 0.36,-39.89 0.3,-79.782 -0.16,-119.67 l 73.27,0.357 c 13.95,0.053 27.54,0.216 41.52,-0.367 19.08,-0.794 24.69,-17.319 16.49,-32.909 -7.4,-14.062 -16.95,-29.672 -18.53,-45.874 -5.39,-55.255 32.99,-98.295 87.34,-103.757 z"
       id="path4" />
    <path
       fill="#4385bc"
       d="m 327.28,789.3 c 45.348,5.046 90.66,10.42 135.931,16.12 2.027,16.483 0.955,66.552 9.251,76.98 3.024,3.802 8.296,7.129 12.984,8.355 15.96,4.176 37.021,4.399 53.636,5.984 39.614,3.725 79.253,7.187 118.914,10.385 31.518,2.369 35.53,-10.145 37.542,-39.431 0.89,-12.954 1.721,-26.377 2.533,-39.375 16.683,-0.743 36.062,-0.329 52.886,-0.336 l 98.549,0.181 c -0.008,1.002 -10e-4,2.003 0.02,3.005 0.166,6.26 0.441,13.164 0.933,19.392 1.607,22.189 -2.156,60.577 31.533,57.499 61.72,-5.751 124.298,-9.096 185.628,-17.677 15.84,-2.215 18.38,-22.973 17.76,-35.353 1.63,1.684 3.28,3.356 4.94,5.015 33.37,33.157 70.5,30.998 112.72,31.003 -3.09,11.758 -8.34,23.901 -13.09,35.135 -8.5,18.71 -20.67,35.526 -35.78,49.451 -82.26,76.547 -299.101,97.777 -408.485,93.997 -152.289,-5.28 -404.547,-49.99 -419.146,-240.907 -0.89,-11.639 0.302,-27.424 0.741,-39.423 z"
       id="path5" />
    <text
       xml:space="preserve"
       style="font-size:266.667px;text-align:start;writing-mode:lr-tb;direction:ltr;text-anchor:start;fill:#af6c66;stroke:#af6c66;stroke-width:1;stroke-linecap:round;stroke-linejoin:round;stroke-dasharray:none"
       x="1275.083"
       y="802.96643"
       id="text5"><tspan
         sodipodi:role="line"
         id="tspan5"
         x="1275.083"
         y="802.96643"
         style="font-style:normal;font-variant:normal;font-weight:bold;font-stretch:normal;font-size:266.667px;font-family:'Open Sans';-inkscape-font-specification:'Open Sans Bold';fill:#ffffff;stroke:none;stroke-width:1;stroke-dasharray:none">C#</tspan></text>
  </g>
</svg>
